<?xml version="1.0" encoding="UTF-8"?>
<svg id="Layer_1" xmlns="http://www.w3.org/2000/svg" xmlns:xlink="http://www.w3.org/1999/xlink" version="1.1" viewBox="0 0 64 64">
  <!-- Generator: Adobe Illustrator 29.1.0, SVG Export Plug-In . SVG Version: 2.1.0 Build 142)  -->
  <defs>
    <style>
      .st0 {
        fill: url(#linear-gradient2);
      }

      .st1 {
        fill: url(#linear-gradient1);
      }

      .st2 {
        fill: url(#linear-gradient);
      }
    </style>
    <linearGradient id="linear-gradient" x1="16" y1=".1" x2="16" y2="63.8" gradientUnits="userSpaceOnUse">
      <stop offset="0" stop-color="#818fc7"/>
      <stop offset="1" stop-color="#5b5ba8"/>
    </linearGradient>
    <linearGradient id="linear-gradient1" x1="48" y1="32" x2="48" y2="64" xlink:href="#linear-gradient"/>
    <linearGradient id="linear-gradient2" x1="48" y1="0" x2="48" y2="32.1" xlink:href="#linear-gradient"/>
  </defs>
  <path class="st2" d="M32,32C32,14.3,17.7,0,0,0v16c8.7,0,15.8,7.2,15.8,16s-7,15.9-15.8,16v16c17.7,0,32-14.3,32-32Z"/>
  <path class="st1" d="M32,48v16c17.7,0,32-14.3,32-32h-15.8c0,8.8-7.2,16-16,16s-.1,0-.2,0Z"/>
  <path class="st0" d="M64,0v16c0,0-.1,0-.2,0-8.8,0-16,7.2-16,16h-15.8C32,14.3,46.3,0,64,0Z"/>
</svg>